<?xml version="1.0" encoding="utf-8"?>
<!-- Generator: Adobe Illustrator 19.2.1, SVG Export Plug-In . SVG Version: 6.00 Build 0)  -->
<svg version="1.1" id="layer" xmlns="http://www.w3.org/2000/svg" xmlns:xlink="http://www.w3.org/1999/xlink" x="0px" y="0px"
	 viewBox="0 0 652 652" style="enable-background:new 0 0 652 652;" xml:space="preserve">
<g>
	<path id="ana" d="M320.8,240.4c11.7,0,21.2,9.5,21.2,21.2c0,11.7-9.5,21.2-21.2,21.2c0,0,0,0,0,0c-11.7,0-21.2-9.5-21.2-21.2
		C299.7,249.9,309.2,240.4,320.8,240.4z M320.8,272.4c6,0,10.9-4.9,10.9-10.9c0-6-4.9-10.9-10.9-10.9c0,0,0,0,0,0
		c-6,0-10.9,4.9-10.9,10.9C310,267.6,314.9,272.4,320.8,272.4z M315.4,400.2v-96.3h10.9v96.3H315.4z M20.8,400.2v-96.3h10.9v96.3
		H20.8z M113.1,303.9h9.8v96.3h-12.3l-33.3-80.5v80.5h-9.8v-96.3h13l32.6,78L113.1,303.9L113.1,303.9z M442.1,400.2v-96.3h10.9v96.3
		C452.9,400.2,442.1,400.2,442.1,400.2z M620.8,313.7h-34.4v30.8h31.8v9.8h-31.8v36.2h34.4v9.8H576v-96.3h44.9
		C620.8,303.9,620.8,313.7,620.8,313.7z M534.4,303.9h11.2l-25,96.3h-12.7l-23.5-96.3h11.2l18.7,84.4L534.4,303.9L534.4,303.9z
		 M356.7,303.9h53.6v9.8h-21.4v86.5H378v-86.5h-21.4C356.7,313.7,356.7,303.9,356.7,303.9z M147.9,303.9h53.6v9.8h-21.3v86.5h-10.9
		v-86.5h-21.4L147.9,303.9L147.9,303.9z M270.9,303.9h10.5v71.3c-0.4,14.5-11.8,26.4-26.4,26.4c-14.6,0-26.1-11.9-26.4-26.4v-71.3
		h10.9v71.4c0.2,8.6,7,15.7,15.7,15.7c8.7,0,15.5-7.1,15.7-15.7C270.9,375.3,270.9,303.9,270.9,303.9z"/>
</g>
</svg>
