<?xml version="1.0" encoding="utf-8"?>
<!-- Generator: Adobe Illustrator 19.2.1, SVG Export Plug-In . SVG Version: 6.00 Build 0)  -->
<svg version="1.1" id="layer" xmlns="http://www.w3.org/2000/svg" xmlns:xlink="http://www.w3.org/1999/xlink" x="0px" y="0px"
	 viewBox="0 0 652 652" style="enable-background:new 0 0 652 652;" xml:space="preserve">
<style type="text/css">
	.st0{fill:#F6AC19;}
	.st1{fill:#E6001F;}
</style>
<polygon class="st0" points="279,287.9 298.2,287.9 279,303.6 300,292.2 279.4,315.9 302.6,297.1 283.3,328.6 307.4,300.4 
	291.7,334.3 311.4,303.2 303.1,340.3 316.2,305.7 316.3,347.7 278.8,326.9 "/>
<polygon class="st1" points="322.4,254.3 357.4,281.2 357.4,325.4 317.7,348.7 317.9,290.7 300.1,274.1 278.8,285.4 278.7,279.4 "/>
<polygon points="104.6,374.6 98,374.6 98,372.6 113.5,372.6 113.5,374.6 106.9,374.6 106.9,392.3 104.6,392.3 "/>
<g>
	<path d="M116.9,371.7h2.2v8.5c1-1.6,2.5-2.8,5-2.8c3.5,0,5.6,2.4,5.6,5.8v9h-2.2v-8.5c0-2.7-1.5-4.4-4-4.4c-2.5,0-4.4,1.8-4.4,4.6
		v8.3h-2.2V371.7z"/>
	<path d="M144.8,384.1c-0.3-2.6-1.8-4.9-4.6-4.9c-2.5,0-4.4,2.1-4.7,4.9H144.8z M140.6,390.7c2,0,3.4-0.8,4.6-2.1l1.4,1.2
		c-1.5,1.6-3.2,2.7-6,2.7c-4,0-7.3-3.1-7.3-7.6c0-4.2,3-7.6,7-7.6c4.3,0,6.8,3.4,6.8,7.7c0,0.2,0,0.4,0,0.8h-11.5
		C135.8,389,138,390.7,140.6,390.7"/>
</g>
<polygon points="159.6,372.6 161.9,372.6 169.1,383.3 176.2,372.6 178.5,372.6 178.5,392.3 176.3,392.3 176.3,376.3 169.1,386.9 
	169,386.9 161.8,376.4 161.8,392.3 159.6,392.3 "/>
<g>
	<path d="M195.7,385.1L195.7,385.1c0-3.2-2.3-5.7-5.4-5.7c-3.2,0-5.3,2.6-5.3,5.6v0.1c0,3.1,2.3,5.6,5.4,5.6
		C193.5,390.7,195.7,388.1,195.7,385.1 M182.8,385.1L182.8,385.1c0-4.2,3.2-7.7,7.6-7.7c4.4,0,7.6,3.4,7.6,7.5v0.1
		c0,4.1-3.2,7.6-7.6,7.6C186,392.6,182.8,389.2,182.8,385.1"/>
	<path d="M201.9,377.7h2.2v2.5c1-1.6,2.5-2.8,5-2.8c3.5,0,5.6,2.4,5.6,5.8v9h-2.2v-8.5c0-2.7-1.5-4.4-4-4.4c-2.5,0-4.4,1.8-4.4,4.6
		v8.3h-2.2V377.7z"/>
	<path d="M219.9,388.4v-8.8h-2v-1.9h2v-4.4h2.2v4.4h4.6v1.9h-4.6v8.5c0,1.8,1,2.4,2.4,2.4c0.7,0,1.4-0.1,2.1-0.5v1.9
		c-0.8,0.4-1.6,0.6-2.6,0.6C221.7,392.5,219.9,391.4,219.9,388.4"/>
	<path d="M230.5,371.7h2.2v8.5c1-1.6,2.5-2.8,5-2.8c3.5,0,5.6,2.4,5.6,5.8v9h-2.2v-8.5c0-2.7-1.5-4.4-4-4.4c-2.5,0-4.4,1.8-4.4,4.6
		v8.3h-2.2V371.7z"/>
</g>
<rect x="248.1" y="371.7" width="2.2" height="20.5"/>
<g>
	<path d="M254.4,396.1l0.7-1.7c0.7,0.4,1.4,0.5,2.3,0.5c1.3,0,2.1-0.7,3-2.7l-6.6-14.5h2.4l5.3,12.1l4.7-12.1h2.3l-6.1,15
		c-1.2,3-2.6,4.1-4.8,4.1C256.3,396.9,255.4,396.6,254.4,396.1"/>
	<path d="M287.5,390.2c5,0,8.2-3.4,8.2-7.7v-0.1c0-4.4-3.2-7.8-8.2-7.8h-4.6v15.6H287.5z M280.7,372.6h6.8c6.2,0,10.5,4.2,10.5,9.8
		v0.1c0,5.5-4.3,9.8-10.5,9.8h-6.8V372.6z"/>
</g>
<path d="M302.5,392.3h2.2v-14.5h-2.2V392.3z M302.4,374.6h2.5v-2.4h-2.5V374.6z"/>
<polygon points="308.3,377.7 310.7,377.7 315.6,389.8 320.5,377.7 322.8,377.7 316.5,392.4 314.6,392.4 "/>
<path d="M326.4,392.3h2.2v-14.5h-2.2V392.3z M326.3,374.6h2.5v-2.4h-2.5V374.6z"/>
<g>
	<path d="M345.4,385L345.4,385c0-3.4-2.6-5.7-5.3-5.7c-2.8,0-5.1,2.1-5.1,5.6v0.1c0,3.4,2.4,5.6,5.1,5.6
		C342.8,390.6,345.4,388.4,345.4,385 M332.8,385L332.8,385c0-4.8,3.5-7.6,6.9-7.6c2.7,0,4.4,1.5,5.6,3.1v-8.8h2.2v20.5h-2.2v-2.9
		c-1.2,1.7-2.9,3.2-5.6,3.2C336.2,392.6,332.8,389.8,332.8,385"/>
	<path d="M363,384.1c-0.3-2.6-1.8-4.9-4.6-4.9c-2.5,0-4.4,2.1-4.7,4.9H363z M358.7,390.7c2,0,3.4-0.8,4.6-2.1l1.4,1.2
		c-1.5,1.6-3.2,2.7-6,2.7c-4,0-7.3-3.1-7.3-7.6c0-4.2,3-7.6,7-7.6c4.3,0,6.8,3.4,6.8,7.7c0,0.2,0,0.4,0,0.8h-11.5
		C353.9,389,356.1,390.7,358.7,390.7"/>
	<path d="M368.9,377.7h2.2v2.5c1-1.6,2.5-2.8,5-2.8c3.5,0,5.6,2.4,5.6,5.8v9h-2.2v-8.5c0-2.7-1.5-4.4-4-4.4c-2.5,0-4.4,1.8-4.4,4.6
		v8.3h-2.2V377.7z"/>
	<path d="M398,385L398,385c0-3.4-2.6-5.7-5.3-5.7c-2.8,0-5.1,2.1-5.1,5.6v0.1c0,3.4,2.4,5.6,5.1,5.6C395.5,390.6,398,388.4,398,385
		 M385.4,385L385.4,385c0-4.8,3.5-7.6,6.9-7.6c2.7,0,4.4,1.5,5.6,3.1v-8.8h2.2v20.5h-2.2v-2.9c-1.2,1.7-2.9,3.2-5.6,3.2
		C388.9,392.6,385.4,389.8,385.4,385"/>
	<path d="M412.9,382.5L412.9,382.5c0-5.6,4.2-10.2,10-10.2c3.6,0,5.7,1.3,7.7,3.1L429,377c-1.7-1.6-3.5-2.7-6.2-2.7
		c-4.4,0-7.6,3.5-7.6,8.1v0.1c0,4.6,3.3,8.1,7.6,8.1c2.7,0,4.5-1,6.4-2.8l1.5,1.4c-2.1,2.1-4.3,3.5-7.9,3.5
		C417.1,392.6,412.9,388.1,412.9,382.5"/>
	<path d="M445.9,385.1L445.9,385.1c0-3.2-2.3-5.7-5.4-5.7c-3.2,0-5.3,2.6-5.3,5.6v0.1c0,3.1,2.3,5.6,5.4,5.6
		C443.7,390.7,445.9,388.1,445.9,385.1 M433,385.1L433,385.1c0-4.2,3.2-7.7,7.6-7.7c4.4,0,7.6,3.4,7.6,7.5v0.1
		c0,4.1-3.2,7.6-7.6,7.6C436.1,392.6,433,389.2,433,385.1"/>
	<path d="M452,377.7h2.2v2.4c1-1.4,2.3-2.8,4.7-2.8c2.4,0,3.9,1.3,4.7,2.9c1-1.6,2.6-2.9,5.1-2.9c3.3,0,5.4,2.3,5.4,5.9v9h-2.2v-8.5
		c0-2.8-1.4-4.4-3.8-4.4c-2.2,0-4,1.6-4,4.5v8.4H462v-8.6c0-2.7-1.4-4.3-3.7-4.3c-2.3,0-4.1,1.9-4.1,4.6v8.3H452V377.7z"/>
	<path d="M491.2,385L491.2,385c0-3.5-2.4-5.7-5.1-5.7c-2.7,0-5.3,2.3-5.3,5.6v0.1c0,3.4,2.6,5.6,5.3,5.6
		C488.9,390.6,491.2,388.6,491.2,385 M478.8,377.7h2.2v2.9c1.2-1.7,2.9-3.2,5.6-3.2c3.5,0,6.9,2.8,6.9,7.5v0.1
		c0,4.7-3.4,7.6-6.9,7.6c-2.7,0-4.4-1.5-5.6-3.1v7.3h-2.2V377.7z"/>
	<path d="M507,386.9v-1.4c-1.1-0.3-2.5-0.6-4.2-0.6c-2.7,0-4.2,1.2-4.2,2.9v0.1c0,1.8,1.7,2.9,3.7,2.9
		C504.9,390.8,507,389.2,507,386.9 M496.4,388L496.4,388c0-3.2,2.5-4.8,6.2-4.8c1.9,0,3.2,0.3,4.4,0.6v-0.5c0-2.6-1.6-3.9-4.3-3.9
		c-1.7,0-3.1,0.4-4.4,1l-0.6-1.8c1.6-0.7,3.1-1.2,5.3-1.2c2.1,0,3.7,0.6,4.7,1.6c1,1,1.5,2.4,1.5,4.3v8.9H507v-2.2
		c-1,1.3-2.7,2.5-5.2,2.5C499.1,392.6,496.4,391,496.4,388"/>
	<path d="M513.7,377.7h2.2v2.5c1-1.6,2.5-2.8,5-2.8c3.5,0,5.6,2.4,5.6,5.8v9h-2.2v-8.5c0-2.7-1.5-4.4-4-4.4c-2.5,0-4.4,1.8-4.4,4.6
		v8.3h-2.2V377.7z"/>
	<path d="M529.8,396.1l0.7-1.7c0.7,0.4,1.4,0.5,2.3,0.5c1.3,0,2.1-0.7,3-2.7l-6.6-14.5h2.4l5.3,12.1l4.7-12.1h2.3l-6.1,15
		c-1.2,3-2.6,4.1-4.8,4.1C531.7,396.9,530.8,396.6,529.8,396.1"/>
	<path d="M550.7,377.1h0.6c0.7,0,1.3-0.2,1.3-0.9c0-0.5-0.3-0.9-1.3-0.9c-0.3,0-0.5,0-0.6,0V377.1z M550.7,379.9h-0.8v-5.1
		c0.4-0.1,0.8-0.1,1.5-0.1c0.8,0,1.3,0.2,1.6,0.4c0.3,0.2,0.5,0.6,0.5,1.1c0,0.7-0.5,1.1-1,1.2v0c0.5,0.1,0.8,0.5,0.9,1.3
		c0.1,0.8,0.2,1.1,0.3,1.3h-0.9c-0.1-0.2-0.2-0.6-0.3-1.3c-0.1-0.7-0.5-0.9-1.1-0.9h-0.6V379.9z M551.5,373.3c-2,0-3.7,1.7-3.7,3.9
		c0,2.2,1.7,3.9,3.7,3.9c2,0,3.7-1.7,3.7-3.9S553.6,373.3,551.5,373.3L551.5,373.3z M551.6,372.6c2.5,0,4.5,2,4.5,4.6
		c0,2.6-2,4.6-4.6,4.6c-2.5,0-4.6-2-4.6-4.6C547,374.7,549,372.6,551.6,372.6L551.6,372.6z"/>
	<path d="M38.8,301.9c0,0.6,0.1,0.8,0.5,1c1.2,0.4,2.8,0.5,4.2,0.5c2.2,0,2.9-0.2,3.9-0.9c1.7-1.2,3.2-3.7,3.2-8.2
		c0-7.8-5.2-10-8.4-10c-1.4,0-2.4,0.1-2.9,0.2c-0.4,0.1-0.5,0.3-0.5,0.8V301.9z M32.3,297.6c0-8.3,0-9.9-0.1-11.6
		c-0.1-1.9-0.5-2.7-2.4-3.1c-0.4-0.1-1.4-0.2-2.1-0.2c-0.6,0-0.9-0.1-0.9-0.5c0-0.4,0.4-0.5,1.2-0.5c2.9,0,6.4,0.2,7.5,0.2
		c1.9,0,6-0.2,7.7-0.2c3.5,0,7.1,0.3,10.1,2.4c1.5,1,3.7,3.8,3.7,7.5c0,4.1-1.7,7.8-7.2,12.3c4.9,6.1,8.7,11,11.9,14.4
		c3.1,3.2,5.3,3.6,6.1,3.7c0.6,0.1,1.1,0.2,1.5,0.2c0.4,0,0.7,0.2,0.7,0.4c0,0.4-0.4,0.5-1,0.5h-5.2c-3.1,0-4.4-0.3-5.9-1
		c-2.4-1.3-4.4-3.8-7.5-8.1c-2.2-3-4.7-6.7-5.4-7.6c-0.3-0.3-0.6-0.4-1-0.4l-4.8-0.1c-0.3,0-0.4,0.1-0.4,0.4v0.8
		c0,5.1,0,9.4,0.3,11.7c0.2,1.6,0.5,2.8,2.1,3c0.8,0.1,2,0.2,2.7,0.2c0.4,0,0.7,0.2,0.7,0.4c0,0.4-0.4,0.5-1.1,0.5
		c-3.2,0-7.2-0.2-8.1-0.2c-1,0-4.5,0.2-6.7,0.2c-0.7,0-1.1-0.2-1.1-0.5c0-0.3,0.2-0.4,0.9-0.4c0.8,0,1.5-0.1,2-0.2
		c1.1-0.2,1.4-1.4,1.6-3c0.3-2.3,0.3-6.6,0.3-11.7V297.6z"/>
	<path d="M78.7,297.6c0-8.3,0-9.9-0.1-11.6c-0.1-1.9-0.5-2.7-2.4-3.1c-0.4-0.1-1.4-0.2-2.1-0.2c-0.6,0-0.9-0.1-0.9-0.5
		c0-0.4,0.4-0.5,1.2-0.5c2.9,0,6.4,0.2,7.9,0.2c1.8,0,12.7,0,13.7-0.1c1-0.1,1.9-0.2,2.4-0.3c0.3-0.1,0.6-0.2,0.9-0.2
		c0.3,0,0.3,0.2,0.3,0.5c0,0.4-0.3,1-0.4,3.6c-0.1,0.5-0.2,3-0.3,3.6c-0.1,0.3-0.2,0.6-0.5,0.6c-0.4,0-0.5-0.3-0.5-0.8
		c0-0.4-0.1-1.3-0.3-2c-0.4-1-0.9-1.6-3.7-2c-0.9-0.1-6.7-0.2-7.8-0.2c-0.3,0-0.4,0.2-0.4,0.5V299c0,0.4,0.1,0.6,0.4,0.6
		c1.2,0,7.5,0,8.8-0.1c1.3-0.1,2.1-0.3,2.6-0.8c0.4-0.4,0.6-0.7,0.9-0.7c0.2,0,0.4,0.1,0.4,0.4c0,0.3-0.3,1.2-0.4,4
		c-0.1,1.1-0.2,3.3-0.2,3.7c0,0.4,0,1-0.5,1c-0.4,0-0.5-0.2-0.5-0.5c-0.1-0.5-0.1-1.3-0.2-2c-0.3-1.1-1-1.9-3.1-2.1
		c-1-0.1-6.5-0.2-7.8-0.2c-0.3,0-0.3,0.2-0.3,0.5v4.3c0,1.9-0.1,6.9,0,8.5c0.1,3.8,1,4.6,6.6,4.6c1.4,0,3.7,0,5.2-0.7
		c1.4-0.7,2.1-1.8,2.5-4.1c0.1-0.6,0.2-0.8,0.6-0.8c0.4,0,0.4,0.4,0.4,1c0,1.3-0.4,5-0.7,6.1c-0.4,1.4-0.9,1.4-3,1.4
		c-8.3,0-12-0.3-15.2-0.3c-1.3,0-4.7,0.2-6.9,0.2c-0.7,0-1.1-0.2-1.1-0.5c0-0.3,0.2-0.4,0.9-0.4c0.8,0,1.5-0.1,2-0.2
		c1.1-0.2,1.4-1.4,1.6-3c0.3-2.3,0.3-6.6,0.3-11.7V297.6z"/>
	<path d="M130.7,306.1c0.3,0,0.3-0.2,0.3-0.3l-4.9-13.6c-0.1-0.2-0.1-0.5-0.3-0.5c-0.2,0-0.3,0.3-0.3,0.5l-5,13.5
		c-0.1,0.2,0,0.4,0.2,0.4H130.7z M119.5,308.8c-0.3,0-0.4,0.1-0.5,0.4l-3,7.8c-0.5,1.4-0.8,2.7-0.8,3.3c0,1,0.5,1.7,2.2,1.7h0.8
		c0.7,0,0.8,0.1,0.8,0.4c0,0.4-0.3,0.6-0.9,0.6c-1.8,0-4.1-0.2-5.8-0.2c-0.6,0-3.6,0.2-6.5,0.2c-0.7,0-1-0.1-1-0.6
		c0-0.3,0.2-0.4,0.7-0.4c0.5,0,1.3-0.1,1.7-0.1c2.5-0.3,3.6-2.2,4.7-4.9l13.8-34.4c0.7-1.6,1-2.2,1.5-2.2c0.5,0,0.8,0.5,1.4,1.8
		c1.3,3,10.1,25.4,13.6,33.7c2.1,4.9,3.7,5.7,4.8,6c0.8,0.2,1.6,0.2,2.3,0.2c0.4,0,0.7,0.1,0.7,0.4c0,0.4-0.5,0.6-2.5,0.6
		c-2,0-6,0-10.4-0.1c-1-0.1-1.6-0.1-1.6-0.4c0-0.3,0.2-0.4,0.8-0.5c0.4-0.1,0.8-0.6,0.5-1.3l-4.4-11.6c-0.1-0.3-0.3-0.4-0.5-0.4
		H119.5z"/>
	<path d="M166.5,307.2c0,7,0,10.8,1.2,11.8c0.9,0.8,2.4,1.2,6.6,1.2c2.9,0,5-0.1,6.4-1.5c0.7-0.7,1.3-2.3,1.4-3.3
		c0.1-0.5,0.2-0.8,0.6-0.8c0.4,0,0.4,0.3,0.4,0.9c0,0.6-0.4,4.7-0.8,6.3c-0.3,1.2-0.6,1.5-3.5,1.5c-7.9,0-11.5-0.3-16-0.3
		c-1.3,0-4.7,0.2-6.9,0.2c-0.7,0-1.1-0.2-1.1-0.5c0-0.3,0.2-0.4,0.9-0.4c0.8,0,1.5-0.1,2-0.2c1.1-0.2,1.4-1.4,1.6-3
		c0.3-2.3,0.3-6.6,0.3-11.7v-9.7c0-8.3,0-9.9-0.1-11.6c-0.1-1.9-0.5-2.7-2.4-3.1c-0.4-0.1-1.1-0.2-1.8-0.2c-0.6,0-0.9-0.1-0.9-0.5
		c0-0.4,0.4-0.5,1.2-0.5c2.6,0,6,0.2,7.5,0.2c1.3,0,5.3-0.2,7.5-0.2c0.8,0,1.2,0.1,1.2,0.5c0,0.4-0.3,0.5-1,0.5
		c-0.6,0-1.5,0.1-2.1,0.2c-1.5,0.3-1.9,1.2-2,3.1c-0.1,1.8-0.1,3.3-0.1,11.6V307.2z"/>
	<path d="M200.8,284.7l-8.2,0.2c-3.2,0.1-4.5,0.4-5.3,1.6c-0.5,0.8-0.8,1.5-0.9,1.9c-0.1,0.4-0.3,0.7-0.6,0.7
		c-0.4,0-0.5-0.3-0.5-0.9c0-0.9,1-5.9,1.2-6.3c0.2-0.7,0.3-1,0.7-1c0.4,0,1,0.5,2.4,0.7c1.6,0.2,3.7,0.3,5.5,0.3h21.7
		c3.5,0,4.8-0.5,5.3-0.5c0.4,0,0.4,0.3,0.4,1.2c0,1.2-0.2,4.9-0.2,6.4c-0.1,0.5-0.2,0.9-0.5,0.9c-0.4,0-0.5-0.3-0.6-1.1l-0.1-0.6
		c-0.1-1.4-1.6-3-6.5-3.1l-6.9-0.2v22.5c0,5,0,9.4,0.3,11.7c0.2,1.5,0.5,2.7,2.1,3c0.8,0.1,2,0.2,2.8,0.2c0.6,0,0.9,0.2,0.9,0.4
		c0,0.4-0.4,0.5-1,0.5c-3.6,0-7.1-0.2-8.6-0.2c-1.3,0-4.7,0.2-6.9,0.2c-0.7,0-1.1-0.2-1.1-0.5c0-0.3,0.2-0.4,0.9-0.4
		c0.8,0,1.5-0.1,2-0.2c1.1-0.2,1.4-1.4,1.6-3c0.3-2.3,0.3-6.6,0.3-11.7V284.7z"/>
	<path d="M242.2,308.9c0-3-0.5-4.2-1.3-5.8c-0.4-0.9-7.7-12.9-9.7-15.8c-1.4-2-2.7-3.4-3.8-4c-0.7-0.4-1.6-0.7-2.3-0.7
		c-0.4,0-0.8-0.1-0.8-0.5c0-0.3,0.4-0.5,1-0.5c1,0,5.1,0.2,6.9,0.2c1.2,0,3.4-0.2,5.9-0.2c0.5,0,0.8,0.2,0.8,0.5
		c0,0.3-0.4,0.4-1.2,0.6c-0.5,0.1-0.8,0.5-0.8,1c0,0.4,0.3,1.1,0.7,1.9c0.8,1.6,8.4,14.9,9.3,16.4c0.5-1.3,7.5-13.4,8.2-15.1
		c0.5-1.2,0.8-2.1,0.8-2.9c0-0.5-0.2-1.1-1.1-1.4c-0.5-0.1-1-0.2-1-0.5c0-0.4,0.3-0.5,0.9-0.5c1.8,0,3.6,0.2,5.2,0.2
		c1.2,0,4.8-0.2,5.9-0.2c0.6,0,1,0.1,1,0.4c0,0.4-0.4,0.5-1,0.5c-0.6,0-1.6,0.2-2.4,0.7c-1.2,0.5-1.8,1.2-3,2.7
		c-1.8,2.2-9.5,15.1-10.5,17.4c-0.8,2-0.8,3.7-0.8,5.5v4.5c0,0.9,0,3.2,0.2,5.5c0.1,1.6,0.6,2.8,2.2,3c0.8,0.1,2,0.2,2.7,0.2
		c0.6,0,0.9,0.2,0.9,0.4c0,0.4-0.4,0.6-1.2,0.6c-3.5,0-6.9-0.2-8.4-0.2c-1.4,0-4.8,0.2-6.9,0.2c-0.8,0-1.2-0.1-1.2-0.6
		c0-0.3,0.3-0.4,0.9-0.4c0.8,0,1.4-0.1,1.9-0.2c1.1-0.2,1.6-1.4,1.7-3c0.2-2.3,0.2-4.6,0.2-5.5V308.9z"/>
	<path d="M376.5,297.6c0-8.3,0-9.9-0.1-11.6c-0.1-1.9-0.7-2.8-1.9-3.1c-0.6-0.2-1.3-0.2-2-0.2c-0.5,0-0.9-0.1-0.9-0.5
		c0-0.3,0.4-0.4,1.3-0.4c2.1,0,5.5,0.2,7.1,0.2c1.4,0,4.6-0.2,6.7-0.2c0.7,0,1.2,0.1,1.2,0.4c0,0.4-0.3,0.5-0.9,0.5s-1,0.1-1.6,0.2
		c-1.5,0.3-1.9,1.2-2,3.1c-0.1,1.8-0.1,3.3-0.1,11.6v9.7c0,5.3,0,9.7,0.2,12c0.2,1.5,0.5,2.5,2.2,2.7c0.8,0.1,2,0.2,2.8,0.2
		c0.6,0,0.9,0.2,0.9,0.4c0,0.4-0.4,0.5-1,0.5c-3.6,0-7.1-0.2-8.6-0.2c-1.3,0-4.7,0.2-6.9,0.2c-0.7,0-1.1-0.2-1.1-0.5
		c0-0.3,0.2-0.4,0.9-0.4c0.8,0,1.5-0.1,2-0.2c1.1-0.2,1.4-1.2,1.6-2.7c0.3-2.3,0.3-6.6,0.3-12V297.6z"/>
	<path d="M407.6,315.7c0.1,4.3,0.8,5.7,1.9,6.1c0.9,0.3,2,0.4,2.9,0.4c0.6,0,0.9,0.1,0.9,0.4c0,0.4-0.5,0.5-1.3,0.5
		c-3.6,0-5.8-0.2-6.8-0.2c-0.5,0-3.1,0.2-5.9,0.2c-0.7,0-1.2-0.1-1.2-0.5c0-0.3,0.3-0.4,0.9-0.4c0.7,0,1.7-0.1,2.5-0.3
		c1.4-0.4,1.6-2,1.7-6.8l0.5-32.5c0-1.1,0.2-1.9,0.7-1.9c0.6,0,1.1,0.7,2,1.7c0.7,0.7,9,9.7,17,17.6c3.7,3.7,11.1,11.6,12.1,12.5
		h0.3l-0.5-24.6c-0.1-3.3-0.5-4.4-1.9-4.9c-0.8-0.3-2.1-0.3-2.9-0.3c-0.7,0-0.9-0.2-0.9-0.5c0-0.4,0.6-0.5,1.4-0.5
		c2.9,0,5.5,0.2,6.6,0.2c0.6,0,2.7-0.2,5.4-0.2c0.7,0,1.3,0.1,1.3,0.5c0,0.3-0.3,0.5-1,0.5c-0.6,0-1,0-1.6,0.2c-1.5,0.4-2,1.6-2,4.7
		l-0.6,34.6c0,1.2-0.2,1.7-0.7,1.7c-0.6,0-1.3-0.6-1.9-1.2c-3.5-3.3-10.5-10.5-16.2-16.1c-6-5.9-12.1-12.8-13.1-13.8H407
		L407.6,315.7z"/>
	<path d="M456,317.9c-5.4-4.7-6.8-10.9-6.8-16.2c0-3.7,1.2-10.2,6.4-15c4-3.6,9.2-5.8,17.3-5.8c3.4,0,5.4,0.2,8,0.5
		c2.1,0.3,3.8,0.8,5.5,0.9c0.6,0.1,0.8,0.3,0.8,0.7c0,0.4-0.2,1.1-0.3,3c-0.1,1.8-0.1,4.8-0.2,5.9c-0.1,0.8-0.2,1.3-0.7,1.3
		c-0.4,0-0.5-0.4-0.5-1.2c-0.1-1.7-0.8-3.6-2.1-5c-1.8-1.9-6.1-3.4-11.1-3.4c-4.8,0-7.9,1.2-10.3,3.4c-4,3.7-5,8.9-5,14.2
		c0,13.1,9.9,19.5,17.3,19.5c4.9,0,7.8-0.5,10-3.1c0.9-1,1.6-2.6,1.9-3.6c0.2-0.9,0.3-1.1,0.7-1.1c0.4,0,0.5,0.4,0.5,0.8
		c0,0.7-0.7,5.4-1.2,7.3c-0.3,0.9-0.5,1.2-1.4,1.6c-2.2,0.9-6.4,1.3-9.9,1.3C467.3,323.9,461,322.3,456,317.9"/>
	<path d="M529.1,303.4c0-12.3-7.1-19.9-16.1-19.9c-6.3,0-13.5,3.5-13.5,17.2c0,11.4,6.3,20.5,16.8,20.5
		C520.2,321.2,529.1,319.3,529.1,303.4 M492,302.4c0-9.4,6.2-21.5,22.7-21.5c13.7,0,22.2,8,22.2,20.5s-8.8,22.5-22.7,22.5
		C498.3,323.9,492,312.1,492,302.4"/>
	<path d="M548.1,281.9c0.2-0.9,0.5-1.4,0.9-1.4c0.4,0,0.8,0.3,1.5,1.7l15,30.9l14.9-31.3c0.4-0.9,0.7-1.3,1.2-1.3
		c0.5,0,0.8,0.5,1,1.7l5,33.9c0.5,3.5,1,5,2.7,5.5c1.6,0.5,2.7,0.5,3.4,0.5c0.5,0,0.9,0.1,0.9,0.4c0,0.4-0.7,0.6-1.4,0.6
		c-1.4,0-8.9-0.2-11.1-0.3c-1.3-0.1-1.6-0.3-1.6-0.6c0-0.3,0.2-0.4,0.6-0.6c0.3-0.1,0.5-0.8,0.3-2.4l-3.3-24.1h-0.2l-12,24.9
		c-1.3,2.6-1.5,3.1-2,3.1c-0.5,0-1-1.1-1.9-2.7c-1.3-2.5-5.7-10.9-6.3-12.5c-0.5-1.2-3.8-8.1-5.7-12.2h-0.2l-2.9,21.8
		c-0.1,1-0.2,1.7-0.2,2.6c0,1,0.7,1.5,1.6,1.8c1,0.2,1.8,0.3,2.3,0.3c0.4,0,0.8,0.1,0.8,0.4c0,0.5-0.5,0.6-1.3,0.6
		c-2.3,0-4.8-0.2-5.8-0.2c-1,0-3.7,0.2-5.4,0.2c-0.5,0-1-0.1-1-0.6c0-0.3,0.3-0.4,0.9-0.4c0.4,0,0.8,0,1.7-0.2
		c1.5-0.3,2-2.5,2.2-4.3L548.1,281.9z"/>
	<path d="M604.6,297.6c0-8.3,0-9.9-0.1-11.6c-0.1-1.9-0.5-2.7-2.4-3.1c-0.4-0.1-1.4-0.2-2.1-0.2c-0.6,0-0.9-0.1-0.9-0.5
		c0-0.4,0.4-0.5,1.2-0.5c2.9,0,6.4,0.2,7.9,0.2c1.8,0,12.7,0,13.7-0.1c1-0.1,1.9-0.2,2.4-0.3c0.3-0.1,0.6-0.2,0.9-0.2
		c0.3,0,0.3,0.2,0.3,0.5c0,0.4-0.3,1-0.4,3.6c-0.1,0.5-0.2,3-0.3,3.6c-0.1,0.3-0.2,0.6-0.5,0.6c-0.4,0-0.5-0.3-0.5-0.8
		c0-0.4-0.1-1.3-0.3-2c-0.4-1-0.9-1.6-3.7-2c-0.9-0.1-6.7-0.2-7.8-0.2c-0.3,0-0.4,0.2-0.4,0.5V299c0,0.4,0.1,0.6,0.4,0.6
		c1.2,0,7.5,0,8.8-0.1c1.3-0.1,2.1-0.3,2.6-0.8c0.4-0.4,0.6-0.7,0.9-0.7c0.2,0,0.4,0.1,0.4,0.4c0,0.3-0.3,1.2-0.4,4
		c-0.1,1.1-0.2,3.3-0.2,3.7c0,0.4,0,1-0.5,1c-0.4,0-0.5-0.2-0.5-0.5c-0.1-0.5-0.1-1.3-0.2-2c-0.3-1.1-1-1.9-3.1-2.1
		c-1-0.1-6.5-0.2-7.8-0.2c-0.3,0-0.3,0.2-0.3,0.5v4.3c0,1.9-0.1,6.9,0,8.5c0.1,3.8,1,4.6,6.6,4.6c1.4,0,3.7,0,5.2-0.7
		c1.4-0.7,2.1-1.8,2.5-4.1c0.1-0.6,0.2-0.8,0.6-0.8c0.4,0,0.4,0.4,0.4,1c0,1.3-0.4,5-0.7,6.1c-0.4,1.4-0.9,1.4-3,1.4
		c-8.3,0-12-0.3-15.2-0.3c-1.3,0-4.7,0.2-6.9,0.2c-0.7,0-1.1-0.2-1.1-0.5c0-0.3,0.2-0.4,0.9-0.4c0.8,0,1.5-0.1,2-0.2
		c1.1-0.2,1.4-1.4,1.6-3c0.3-2.3,0.3-6.6,0.3-11.7V297.6z"/>
</g>
</svg>
